<?xml version="1.0" encoding="utf-8"?>
<!-- Generator: Adobe Illustrator 26.1.0, SVG Export Plug-In . SVG Version: 6.00 Build 0)  -->
<svg version="1.1" id="Layer_1" xmlns="http://www.w3.org/2000/svg" xmlns:xlink="http://www.w3.org/1999/xlink" x="0px" y="0px"
	 viewBox="0 0 643.4 247.9" style="enable-background:new 0 0 643.4 247.9;" xml:space="preserve">
<style type="text/css">
	.st0{opacity:0.99;fill:#E5E5E5;enable-background:new    ;}
	.st1{fill:#E5E5E5;}
	.st2{opacity:0.99;}
	.st3{fill:#FFFFFF;}
</style>
<path class="st0" d="M220.4,124.9c-2.1-4.4-8-9-14.3-10c-2.5-0.5-5.2-0.4-7.7,0.1c-2,0.5-4.3,1.8-5.2,0.4
	c-4.3-6.4-2.3-15.4-4.6-23.8c-3.4-12.4-11.2-25.7-18.8-34.8c-2.9-3.4-10.8-11.5-15.8-21.7c-3.7-7.5-3.6-16.5-6.6-23.1
	S135.1,0,135.1,0s1.2,13.3-2.2,19.8c-2,3.6-5.1,6.6-8.8,8.4c-3.1,1.7-0.6-4.6-1.1-10.3c-0.4-5.1-5.5-9.6-5.5-9.6
	c-2,4.6-4.8,8.8-8.2,12.5c-6.4,6.9-18.8,13.3-22.6,14.2c-10.3,2.3-4.2,0.9-17.4,6.8c-9.7,4.3-16.2,7.6-26.6,16.1
	c-4,3.3-6.7,4-11.8,14.1c-4.7,9.2-8,18.4-7.3,27.1c0.1,1.4,0.5,7.9-0.3,8.5c-2.4,1.9-10.6,1.6-15.5,5c-2.8,1.9-3.9,4.3-5.1,7.1
	c-2.6,6.6-2.7,14.9-2.7,21c0,7.8,0.3,10,4.9,18.7c0.6,1.2,5.2,3.8,5.2,4.8c-0.2,3.5-5,7-6.4,11.3c-0.7,2.1-2.4,6.3-2.7,8.6
	c-1,7.7,1,16.5,2.5,21.2c4,12.2,16.6,24.3,33.9,31.5c19.9,8.4,45.6,11.1,63.8,11.1c39.5,0,73.3-20.1,88.6-52.7
	c0.7-1.5,3.2,0.4,5.1-0.3c3.4-1.2,6.7-2.6,9.9-4.3c10-5.1,17.3-14.2,20.2-25C228.9,150.5,227.9,141,220.4,124.9z M11.8,133.9
	l2.5-3.7h6.2v12.3l-3,8.3l-1.6-0.8l-1.9-2.7l-1.3-2.6l-1-5.1L11.8,133.9z M140.7,183.1l-1.9,6.4L133,200l-6.1,8l-11.9,9l-10.5,5.8
	l-15.8,5.5l-12.8,2.1h-14l-13.2-1.6l-9.8-3.3l-10.9-5l-7-5l-5-5.5l-3.5-5.4L11,200l-1-5v-13l0.9-4l2-4.9l3.2-4.2l4-5l4.2-6.3
	l2.7-6.5l1.5-6.9l1.2-11.2l0.3-13l0.8-14.4l1.3-2l2.3-1.2l3-0.7l3.6,0.5l3.7,1.1l3,3.4l2.1,3.8l1,4.1l0.1,3.1L53,116l3.9-4.3
	l5.1-4.6l6.1-3.7l7.8-2.6l5.7-0.9h8l7.1,2.1l6.4,3.1l6.3,5.5l4.5,7l2.7,6.2l2,5.7l1.1,4.5l0.7,5.4v2.9l-9.4,2.9l4.1,0.5l8,2l6.4,3.3
	l4.5,4l3.1,5.6l2,5.4l1.5,6.1L140.7,183.1z M200.6,160.7l-2.7,7l-5.1,4.4l-5.8,2.7l-5.6,1.7h-2.1l-0.2-9.9l1.9-3.4l4.9-4.9l1.2-3.6
	l-3.3-2.8l-3.8-1.1l-4-7l-2.5-5.5l11.8-1.4h4.2l4.4,1.1l3.2,3.2l2.5,6.3l1.1,4.9L200.6,160.7z"/>
<path class="st1" d="M43.2,165.2v-2.7c0-0.4,0.1-0.9,0.4-1.2l1.7-2.4c0.4-0.5,1-0.9,1.7-0.9h4l4,0.9l2.7,1.8l2.7,2.7l2,3.1l-4.7-2.9
	c-0.2-0.1-0.5-0.2-0.8-0.3l-3.4-0.9c-0.4-0.1-0.8-0.2-1.2-0.2h-5.6c-0.8,0-1.6,0.4-2,1.1L43.2,165.2z"/>
<ellipse transform="matrix(0.9766 -0.2151 0.2151 0.9766 -30.1565 12.6856)" class="st1" cx="43.2" cy="144.9" rx="5.2" ry="7.4"/>
<path class="st1" d="M68.7,149.5c1.2,1,3.7-1.9,8.8-2.3c1.4-0.1,2.8,0,4.2,0.2c3.9,0.6,5.8,2.2,6.2,1.8s-1.6-4.1-4.9-5.3
	c-3.2-1.1-5.9,0.4-6.4-0.5c-0.4-0.8,1.2-2.4,2.7-3.5c4.5-3.4,9.7-2.7,9.7-3.5s-3.4-1.9-7.1-1.6c-5.7,0.5-9.2,4.6-10.2,5.8
	c-1.3,1.5-2.3,3.2-2.8,5.1C68.4,147.2,68,148.9,68.7,149.5z"/>
<path class="st1" d="M27.6,181.9c0.3,2.4,1.1,4.8,2.3,6.9c0.9,1.6,2.8,4.3,8.6,7.8c10.6,6.2,23,8.5,35.1,6.5
	c5.5-0.9,10.8-2.8,15.7-5.5c5.5-3.1,10.4-7.4,14.1-12.5c3.6-4.8,6-10.4,7.1-16.2c0.4-2.6,0.5-5.1,0.9-5.1c0.6,0,1.5,6,1.2,11.1
	c-0.6,13.8-10,23.4-10.8,24.2c-7.8,7.7-16.7,9.3-25.6,10.9c-4.8,0.9-18.5,3.2-32.7-2.8c-8.5-3.5-11.9-7.8-13.3-9.9
	c-2.1-2.8-3.3-6.2-3.5-9.7C26.8,185.6,27,183.7,27.6,181.9z"/>
<g class="st2">
	<path class="st0" d="M253.4,132h17v49.1h24.4v14.2h-41.4V132z"/>
	<path class="st0" d="M348.4,180.6l-3.6,14.7h-17.6l18.4-63.4h22.6l18.9,63.4h-18.3l-4-14.7L348.4,180.6L348.4,180.6z M362.4,168.1
		l-2.9-11.4c-1-3.6-2.2-8.7-3.1-12.5h-0.2c-0.9,3.7-1.9,9-2.8,12.6l-2.7,11.3L362.4,168.1L362.4,168.1z"/>
	<path class="st0" d="M423.4,195.3V132h20l10,19.4c3.8,7.2,7.1,14.6,10,22.2h0.2c-0.9-8.9-1.3-17.8-1.2-26.7v-15h15.5v63.4H460
		l-10.7-21.1c-3.9-7.4-7.5-15.1-10.7-22.9h-0.3c0.4,8.6,0.6,18.1,0.6,28.4v15.6L423.4,195.3z"/>
	<path class="st0" d="M557.4,169.8h-22.8v11.7h25.5v13.9h-42.4V132h41.1v13.9h-24.1v10.2h22.8L557.4,169.8L557.4,169.8z"/>
	<path class="st0" d="M610,146.2h-16.1V132h49.5v14.2H627v49.1h-17V146.2z"/>
</g>
<path class="st3" d="M295.6,66.5h5.3v33.3h17.6v4.1h-22.9V66.5z"/>
<path class="st3" d="M351,66.5v37.4h-5.3V66.5H351z"/>
<path class="st3" d="M381.5,66.5h5.3v33.3h17.5v4.1h-22.9V66.5H381.5z"/>
<path class="st3" d="M472.4,92.1l-4.2,11.7h-5.5l14-37.4h6.4l14,37.4h-5.6L487,92.1H472.4z M485.9,88.3l-4.1-10.8
	c-0.9-2.4-1.5-4.7-2.1-6.8h-0.1c-0.6,2.2-1.2,4.5-2,6.8l-4,10.8H485.9z"/>
<path class="st3" d="M524.3,66.9c3.4-0.5,6.8-0.8,10.2-0.7c5.2,0,9.1,1.1,11.5,3.1c2.4,1.9,3.7,4.8,3.6,7.8c0.1,3-1,5.9-3.2,8
	c-2.8,2.7-7.4,4.1-12.5,4.1c-1.4,0-2.9-0.1-4.3-0.4v15h-5.3V66.9z M529.6,84.9c1.4,0.3,2.9,0.5,4.4,0.4c6.4,0,10.3-2.9,10.3-8
	c0-4.9-3.9-7.4-9.7-7.4c-1.7,0-3.3,0.1-5,0.4V84.9z"/>
<path class="st3" d="M599.2,86.3h-15.9v13.5h17.8v4H578V66.5h22.2v4h-16.9v11.8h15.9V86.3z"/>
</svg>
